Coordinates
version=1
nRows=32
nColumns=22
inDegrees=yes

Units are S.I. units (second, meters, Newtons, ...)
If the header above contains a line with 'inDegrees', this indicates whether rotational values are in degrees (yes) or radians (no).

endheader
time	pelvis_tilt	pelvis_list	pelvis_rotation	pelvis_tx	pelvis_ty	pelvis_tz	hip_flexion_r	hip_adduction_r	hip_rotation_r	knee_angle_r	ankle_angle_r	subtalar_angle_r	hip_flexion_l	hip_adduction_l	hip_rotation_l	knee_angle_l	ankle_angle_l	subtalar_angle_l	lumbar_extension	lumbar_bending	lumbar_rotation
      4.06000000	     -0.47730398	      1.10983981	      9.88072681	      0.09653825	      0.97500888	     -0.89003469	     27.78745002	     -4.32513736	    -37.59040592	    -16.67168079	      8.06389798	      6.47521558	    -17.27077101	     -1.85071266	    -13.86710998	    -14.27405535	     13.13588789	     15.63300413	     -5.62123520	     -2.99813948	    -10.60235566
      4.07000000	     -0.38605344	      0.86904233	      9.91368946	      0.10903701	      0.97543702	     -0.88957052	     27.43258126	     -4.16534773	    -38.05260639	    -17.44351648	      7.50955042	      4.98431692	    -17.54511193	     -2.42067731	    -13.42573062	    -15.11942627	     11.98479339	     16.27952735	     -5.37989113	     -2.52116857	    -10.79183206
      4.08000000	     -0.30298963	      0.61211784	      9.90884226	      0.12163785	      0.97611026	     -0.88894825	     27.10198624	     -3.97471880	    -38.35924086	    -18.25038562	      6.97179738	      3.32852470	    -17.71709351	     -3.01050030	    -13.00667438	    -16.09992401	     10.67975687	     16.90611872	     -5.12429079	     -2.02788038	    -10.94851135
      4.09000000	     -0.24214942	      0.35588347	      9.83227789	      0.13427603	      0.97699762	     -0.88810605	     26.82149984	     -3.74604873	    -38.41406438	    -19.09782131	      6.50724000	      1.62358668	    -17.76412931	     -3.59188765	    -12.64365211	    -17.22754384	      9.19128181	     17.50847464	     -4.84801420	     -1.54571625	    -11.04491753
      4.10000000	     -0.20989019	      0.11537464	      9.67308966	      0.14686423	      0.97806888	     -0.88702067	     26.59762076	     -3.47499347	    -38.15489959	    -19.96808267	      6.14879640	      0.02866764	    -17.66514499	     -4.14703736	    -12.33742427	    -18.52391277	      7.52048201	     18.06613001	     -4.55543775	     -1.09412625	    -11.08590626
      4.11000000	     -0.20495053	     -0.10226625	      9.42265308	      0.15932550	      0.97929213	     -0.88565636	     26.42301284	     -3.14811339	    -37.56703706	    -20.83177803	      5.91222607	     -1.34606799	    -17.40825165	     -4.67062599	    -12.09262121	    -20.00816972	      5.67975385	     18.55918622	     -4.25779260	     -0.68412622	    -11.07879165
      4.12000000	     -0.21898420	     -0.29828077	      9.08992854	      0.17160600	      0.98065096	     -0.88401567	     26.27135907	     -2.75511499	    -36.70368820	    -21.64701749	      5.77615287	     -2.49115777	    -16.99351538	     -5.17053568	    -11.89285651	    -21.68627988	      3.69048031	     18.97599051	     -3.96633556	     -0.31150440	    -11.04540581
      4.13000000	     -0.24149861	     -0.47384843	      8.67644370	      0.18366469	      0.98211586	     -0.88207995	     26.11138219	     -2.28787938	    -35.63728880	    -22.37066214	      5.69380749	     -3.41699618	    -16.42626481	     -5.65338030	    -11.72876030	    -23.56657193	      1.58792747	     19.30411765	     -3.69632312	      0.02268623	    -10.97381919
      4.14000000	     -0.26002176	     -0.62463427	      8.22959796	      0.19548387	      0.98365217	     -0.87990760	     25.90871907	     -1.77915821	    -34.51936176	    -22.99041303	      5.69124371	     -4.30883569	    -15.70881380	     -6.13230248	    -11.54948296	    -25.65903248	     -0.56109894	     19.55466316	     -3.46200460	      0.31374739	    -10.91775155
      4.15000000	     -0.25618039	     -0.75896444	      7.71831265	      0.20703577	      0.98524755	     -0.87745431	     25.63701640	     -1.20693962	    -33.32559364	    -23.48394375	      5.65886444	     -4.96132472	    -14.87344063	     -6.61378842	    -11.41766629	    -27.94828300	     -2.68081269	     19.71491864	     -3.28733267	      0.57506665	    -10.84225088
      4.16000000	     -0.24268516	     -0.86622130	      7.21095326	      0.21832691	      0.98684047	     -0.87480751	     25.28856482	     -0.63004628	    -32.23060667	    -23.84813305	      5.67132490	     -5.62527983	    -13.89596922	     -7.09769270	    -11.23676247	    -30.43533637	     -4.69246361	     19.80526150	     -3.15474163	      0.78298580	    -10.77778263
      4.17000000	     -0.21270446	     -0.95653694	      6.71609190	      0.22934465	      0.98839488	     -0.87202682	     24.87251257	     -0.05820632	    -31.22798264	    -24.12045483	      5.72754438	     -6.28974912	    -12.79947753	     -7.58190179	    -10.98330516	    -33.08255155	     -6.51230151	     19.82753806	     -3.06967765	      0.96446404	    -10.76179370
      4.18000000	     -0.16603221	     -1.02183694	      6.24793305	      0.24007890	      0.98990976	     -0.86912687	     24.37707618	      0.48924414	    -30.36732592	    -24.28205967	      5.82484647	     -6.89503294	    -11.58819174	     -8.05015843	    -10.63418425	    -35.86111660	     -8.09339306	     19.80969791	     -3.03640918	      1.09964299	    -10.75642147
      4.19000000	     -0.11054067	     -1.06159115	      5.81682492	      0.25052716	      0.99137011	     -0.86618836	     23.82204256	      0.99457325	    -29.64322588	    -24.35873520	      5.97894354	     -7.44954590	    -10.27206094	     -8.47312748	    -10.14512039	    -38.70998458	     -9.37269896	     19.76287702	     -3.04329912	      1.19486628	    -10.76290973
      4.20000000	     -0.05301733	     -1.06961608	      5.42065527	      0.26068157	      0.99277443	     -0.86322011	     23.22379087	      1.44971421	    -29.03378920	    -24.36418622	      6.18470804	     -7.95093992	     -8.86307578	     -8.81728179	     -9.49419154	    -41.56576899	    -10.29734817	     19.70154530	     -3.08370711	      1.24086892	    -10.78613729
      4.21000000	      0.00490858	     -1.04320270	      5.05020485	      0.27055702	      0.99414102	     -0.86030905	     22.59719316	      1.84208948	    -28.52347033	    -24.32559095	      6.43792638	     -8.38100169	     -7.38570242	     -9.04698722	     -8.68180994	    -44.35759546	    -10.85139824	     19.65931416	     -3.15133584	      1.24744954	    -10.78954805
      4.22000000	      0.06169533	     -0.97802762	      4.68929574	      0.28016508	      0.99548178	     -0.85745695	     21.95419945	      2.17012476	    -28.08060927	    -24.25880825	      6.72728810	     -8.72757779	     -5.86445307	     -9.14378374	     -7.74886623	    -47.02555653	    -11.01613319	     19.67908194	     -3.24187431	      1.21066166	    -10.76357886
      4.23000000	      0.11407546	     -0.87309622	      4.31370852	      0.28952631	      0.99681394	     -0.85463089	     21.30184523	      2.44520842	    -27.65790000	    -24.16388862	      7.03751386	     -8.99083954	     -4.32358046	     -9.10461657	     -6.75504419	    -49.51756933	    -10.80699457	     19.81606405	     -3.34518690	      1.12658507	    -10.69396481
      4.24000000	      0.16541661	     -0.74120765	      3.90403517	      0.29866651	      0.99814164	     -0.85179924	     20.64301239	      2.68595938	    -27.23241609	    -24.04880589	      7.36649604	     -9.16228401	     -2.78657130	     -8.95976910	     -5.77124980	    -51.80624078	    -10.26383572	     20.11487923	     -3.45796178	      1.01124541	    -10.57240672
      4.25000000	      0.21519692	     -0.58957844	      3.43302463	      0.30762049	      0.99947218	     -0.84888184	     19.97569590	      2.91575488	    -26.76287766	    -23.90230996	      7.69693692	     -9.25175733	     -1.27540673	     -8.73527656	     -4.85317988	    -53.86586168	     -9.44777213	     20.62939614	     -3.57070081	      0.86578644	    -10.37805838
      4.26000000	      0.28020799	     -0.43089051	      2.88375393	      0.31641486	      1.00082223	     -0.84581451	     19.28338954	      3.15509863	    -26.23546998	    -23.72584385	      8.01564725	     -9.26500226	      0.17888909	     -8.47465644	     -4.05554704	    -55.68576661	     -8.42833411	     21.30132409	     -3.69542036	      0.70057646	    -10.11048064
      4.27000000	      0.35992920	     -0.27504376	      2.24466111	      0.32504845	      1.00217797	     -0.84253846	     18.56920028	      3.41937561	    -25.62973757	    -23.52003649	      8.30619653	     -9.22335927	      1.57469989	     -8.21451548	     -3.40760656	    -57.26809575	     -7.29407514	     22.04177935	     -3.82913317	      0.52261527	     -9.78307981
      4.28000000	      0.45389079	     -0.12078984	      1.52474273	      0.33355874	      1.00354565	     -0.83904316	     17.82331524	      3.70378182	    -24.97333956	    -23.26951302	      8.57213513	     -9.14364750	      2.90426787	     -7.96061013	     -2.88133688	    -58.60128616	     -6.10088127	     22.79753120	     -3.96218993	      0.32675134	     -9.39106519
      4.29000000	      0.55405706	      0.01983328	      0.71611749	      0.34191926	      1.00488443	     -0.83529285	     17.06070543	      4.02242350	    -24.24161556	    -22.98316792	      8.80207204	     -9.05233664	      4.18156227	     -7.74493230	     -2.49207823	    -59.69939613	     -4.90924492	     23.39972941	     -4.09047201	      0.12657152	     -8.95202980
      4.30000000	      0.65742027	      0.15246824	     -0.16516158	      0.35013983	      1.00618012	     -0.83129979	     16.28229850	      4.35958753	    -23.47114582	    -22.66300819	      9.00298648	     -8.96024022	      5.40766175	     -7.55964036	     -2.19875054	    -60.55923724	     -3.73539374	     23.84108923	     -4.20791275	     -0.08527506	     -8.47357962
      4.31000000	      0.75894063	      0.27495359	     -1.11337718	      0.35821343	      1.00740839	     -0.82708014	     15.49454211	      4.71275787	    -22.66078487	    -22.31325316	      9.17172359	     -8.87674732	      6.59031842	     -7.41002768	     -1.98447583	    -61.18918960	     -2.61092153	     24.09758341	     -4.31092017	     -0.30214078	     -7.96574443
      4.32000000	      0.85398372	      0.38505186	     -2.12694380	      0.36614047	      1.00855240	     -0.82263481	     14.70006495	      5.08152841	    -21.81472556	    -21.93304929	      9.31268528	     -8.81168180	      7.73066478	     -7.29704012	     -1.83237774	    -61.59038463	     -1.55578469	     24.14334708	     -4.39746457	     -0.52101128	     -7.42324957
      4.33000000	      0.93805001	      0.48085418	     -3.20310449	      0.37391619	      1.00959800	     -0.81797574	     13.90139353	      5.46619959	    -20.92455258	    -21.52076897	      9.42439667	     -8.76137807	      8.83233079	     -7.22215201	     -1.73034705	    -61.76909026	     -0.59732352	     23.98465581	     -4.46586814	     -0.73657669	     -6.84794950
      4.34000000	      1.00994002	      0.56243151	     -4.33700064	      0.38155754	      1.01054400	     -0.81311826	     13.09349442	      5.86363091	    -19.99588019	    -21.07041072	      9.50977958	     -8.73064510	      9.89108106	     -7.18556933	     -1.67246703	    -61.72680240	      0.24747112	     23.59533901	     -4.51438877	     -0.94722549	     -6.23680748
      4.35000000	      1.07606788	      0.63015132	     -5.51456461	      0.38903566	      1.01139557	     -0.80810772	     12.27424116	      6.26564027	    -19.03002327	    -20.59101792	      9.56515637	     -8.71988411	     10.90325353	     -7.17567121	     -1.62937959	    -61.47544855	      0.95510501	     22.89844125	     -4.56359718	     -1.14805294	     -5.60839393
      4.36000000	      1.14083446	      0.69166923	     -6.70487233	      0.39638274	      1.01214724	     -0.80304352	     11.44793751	      6.64498504	    -18.08784480	    -20.10700373	      9.60962049	     -8.74251573	     11.86398637	     -7.16471922	     -1.56135859	    -61.02642861	      1.63020800	     21.91874013	     -4.60869901	     -1.34158307	     -4.98995115
      4.37000000	      1.18361118	      0.73350859	     -7.93503002	      0.40355495	      1.01278479	     -0.79783650	     10.62612253	      7.03734088	    -17.09408190	    -19.59270049	      9.63290759	     -8.79085081	     12.79064716	     -7.19211004	     -1.50928707	    -60.38631203	      2.22666995	     20.95917352	     -4.64029058	     -1.51808203	     -4.34594022
